<?xml version="1.0" encoding="UTF-8"?>
<svg id="Layer_1" xmlns="http://www.w3.org/2000/svg" viewBox="0 0 2000 2000">
  <defs>
    <style>
      .cls-1 {
        fill: #fff;
      }

      .cls-2 {
        font-family: MyriadPro-Regular, 'Myriad Pro';
        font-size: 123.71px;
      }
    </style>
  </defs>
  <path class="cls-1" d="M1678.44,1139.09c-93.03,19.74-191.8-29.69-230.05-117.17-7.97-18.27-21.28-27.9-41.54-27.51-8.4.2-16.85-.16-25.25.08-18.07.52-30.76,9.39-38.49,25.61-38.69,80.74-103.57,122.48-192.24,122.79-261.6.91-523.16.16-784.73-.08-101.79-.12-187.32-69.64-205.79-169.41-20.1-108.49,47.05-211.86,154.27-238.26,17.56-4.32,36.15-6.14,54.3-6.18,129.77-.51,259.58-.28,389.39-.28v.04c130.76,0,261.56-.2,392.36.12,48.91.12,94.69,13,131.67,45.7,20.41,18.03,38.05,40.23,53.11,63.1,20.97,31.95,53.99,45.9,89.22,30.2,10.78-4.84,21.05-15.42,26.83-25.92,32.3-58.78,80.5-96.44,146.02-109.04,118.04-22.67,228.07,59.65,243.8,175.95,14.59,107.97-59.26,208.25-162.91,230.25Z"/>
  <text class="cls-2" transform="translate(322.55 972.33) scale(1.23 1)"><tspan x="0" y="0">LEARN MORE</tspan></text>
  <path d="M1682.21,990.33v-79.1c-30.09,30.09-60.18,60.18-90.02,90.03-5.53-5.54-10.45-10.46-15.69-15.7,29.74-29.74,59.86-59.85,90.34-90.31h-79.73v-21.09h116.03v116.18h-20.92Z"/>
</svg>